<svg version="1.1" xmlns="http://www.w3.org/2000/svg" xmlns:xlink="http://www.w3.org/1999/xlink" width="522" height="89.21479"><g transform="translate(2,-156.05836)"><g data-paper-data="{&quot;isPaintingLayer&quot;:true}" fill="#000000" fill-rule="nonzero" stroke="none" stroke-width="0" stroke-linecap="butt" stroke-linejoin="miter" stroke-miterlimit="10" stroke-dasharray="" stroke-dashoffset="0" font-family="none" font-weight="none" font-size="none" text-anchor="none" style="mix-blend-mode: normal"><path d="M520,156.09875v33.17442h-186c0,-1.83333 0,-3.66667 0,-5.5c0,-9.22481 0,-18.44961 0,-27.67442z"/><path d="M286,189.27316c0,-0.01781 0,-0.03562 0,-0.05343c3.56444,-0.66501 5.82516,-2.92144 6.93429,-5.79818c1.59711,1.43804 3.65443,2.28287 6.28692,2.28287c2.94316,0 5.21096,-0.94256 6.83789,-2.45438c1.54399,1.38746 3.23404,2.43707 4.9409,3.1198c0,0.96778 0,1.93554 0,2.90332z"/><path d="M241.19131,187.52012c0.55802,0.63525 1.21748,1.18675 1.85628,1.75305h-1.13872c-0.25913,-0.63025 -0.52999,-1.2557 -0.82063,-1.87303c0.03863,0.04571 0.07311,0.08587 0.10308,0.11998z"/><path d="M233.77884,176.95c0.05448,0.10502 0.10921,0.20988 0.16422,0.31457c-0.13094,-0.03328 -0.17045,-0.15245 -0.16422,-0.31457z"/><path d=""/><path d=""/><path d="M-2,189.27316v-33.17442h140c0,10.05814 0,20.11628 0,30.17442c0,0.4714 0,1.94281 0,3z"/><path d="" data-paper-data="{&quot;origPos&quot;:null}"/><path d="" data-paper-data="{&quot;origPos&quot;:null}"/><path d="M137.14754,182.78973v-26.73137h15.85246c0,7.84424 0,16.62716 0,24.2148c0,0 0,1.07326 0.35161,2.51657z" data-paper-data="{&quot;origPos&quot;:null}"/><path d="" data-paper-data="{&quot;origPos&quot;:null}"/><path d="" data-paper-data="{&quot;origPos&quot;:null}"/><path d="M131,208.27315v-51h13v51z"/><path d="M342,245.27315v-85h3v85z"/></g></g></svg>