<svg version="1.1" xmlns="http://www.w3.org/2000/svg" xmlns:xlink="http://www.w3.org/1999/xlink" width="522" height="33.22307"><g transform="translate(2,-347.77693)"><g data-paper-data="{&quot;isPaintingLayer&quot;:true}" fill="#000000" fill-rule="nonzero" stroke="none" stroke-width="0" stroke-linecap="butt" stroke-linejoin="miter" stroke-miterlimit="10" stroke-dasharray="" stroke-dashoffset="0" font-family="none" font-weight="none" font-size="none" text-anchor="none" style="mix-blend-mode: normal"><path d="M520,347.82558v33.17442h-234c0,-1.5 0,-3 0,-4.5c0,-9.55814 0,-19.11628 0,-28.67442z"/><path d="M241.19131,379.24695c0.55802,0.63525 1.21748,1.18675 1.85628,1.75305h-1.13872c-0.25913,-0.63025 -0.52999,-1.2557 -0.82063,-1.87303c0.03863,0.04571 0.07311,0.08587 0.10308,0.11998z"/><path d="M233.77884,368.67683c0.05448,0.10502 0.10921,0.20988 0.16422,0.31457c-0.13094,-0.03328 -0.17045,-0.15245 -0.16422,-0.31457z"/><path d=""/><path d="M197.9028,381c0.62028,-0.14169 1.15769,-0.36215 1.55836,-0.69419c0.86239,-0.71469 1.70921,-1.44861 2.54151,-2.19926c0.22171,0.96063 0.48185,1.92237 0.78205,2.89345z"/><path d="M-2,381v-33.17442h140c0,10.05814 0,20.11628 0,30.17442c0,0.4714 0,1.94281 0,3z"/><path d="M264.67933,371.75627v-23.9082h23.60934v23.9082z" data-paper-data="{&quot;origPos&quot;:null}"/><path d="M137.14754,374.51656v-26.73137h35.51396v26.73137z" data-paper-data="{&quot;origPos&quot;:null}"/><path d="M170.42185,373.94036v-26.16342h33.53767v26.16342z" data-paper-data="{&quot;origPos&quot;:null}"/></g></g></svg>