<svg version="1.1" xmlns="http://www.w3.org/2000/svg" xmlns:xlink="http://www.w3.org/1999/xlink" width="33.7146" height="28.65603"><g transform="translate(-208.47391,-156.33759)"><g data-paper-data="{&quot;isPaintingLayer&quot;:true}" fill="none" fill-rule="nonzero" stroke="#000000" stroke-width="2" stroke-linecap="none" stroke-linejoin="miter" stroke-miterlimit="10" stroke-dasharray="" stroke-dashoffset="0" font-family="none" font-weight="none" font-size="none" text-anchor="none" style="mix-blend-mode: normal"><path d="M209.47391,161.6427c0,-2.37765 1.87942,-4.30511 4.19782,-4.30511c2.3184,0 4.19783,1.92746 4.19783,4.30511c0,2.37765 -1.87943,4.30512 -4.19783,4.30512c-2.3184,0 -4.19782,-1.92747 -4.19782,-4.30512z" data-paper-data="{&quot;origPos&quot;:null}" stroke-linecap="butt"/><path d="M233.29578,179.6885c0,-2.37765 1.76684,-4.30511 3.94636,-4.30511c2.17952,0 3.94637,1.92746 3.94637,4.30511c0,2.37765 -1.76685,4.30512 -3.94637,4.30512c-2.17952,0 -3.94636,-1.92747 -3.94636,-4.30512z" data-paper-data="{&quot;origPos&quot;:null}" stroke-linecap="butt"/><path d="M221.59549,171.37646c0,-2.37765 1.82313,-4.30511 4.07209,-4.30511c2.24896,0 4.0721,1.92746 4.0721,4.30511c0,2.37765 -1.82314,4.30512 -4.0721,4.30512c-2.24896,0 -4.07209,-1.92747 -4.07209,-4.30512z" data-paper-data="{&quot;origPos&quot;:null}" stroke-linecap="butt"/><path d="M211.20869,179.95421h21.93404" data-paper-data="{&quot;origPos&quot;:null}" stroke-linecap="round"/><path d="M239.53129,162.11608h-21.29518" data-paper-data="{&quot;origPos&quot;:null}" stroke-linecap="round"/><path d="M212.0605,171.4345h9.36988" data-paper-data="{&quot;origPos&quot;:null}" stroke-linecap="round"/><path d="M229.52255,171.16826h9.58283" data-paper-data="{&quot;origPos&quot;:null}" stroke-linecap="round"/></g></g></svg>