<svg version="1.1" xmlns="http://www.w3.org/2000/svg" xmlns:xlink="http://www.w3.org/1999/xlink" width="549.87097" height="34.22306"><g transform="translate(2,-347.77694)"><g data-paper-data="{&quot;isPaintingLayer&quot;:true}" fill="#000000" fill-rule="nonzero" stroke="none" stroke-width="0" stroke-linecap="butt" stroke-linejoin="miter" stroke-miterlimit="10" stroke-dasharray="" stroke-dashoffset="0" font-family="none" font-weight="none" font-size="none" text-anchor="none" style="mix-blend-mode: normal"><path d="M520,347.82558v33.17442h-234c0,-1.5 0,-3 0,-4.5c0,-9.55814 0,-19.11628 0,-28.67442z"/><path d=""/><path d=""/><path d=""/><path d="M197.9028,381c0.62028,-0.14169 1.15769,-0.36215 1.55836,-0.69419c0.86239,-0.71469 1.70921,-1.44861 2.54151,-2.19926c0.22171,0.96063 0.48185,1.92237 0.78205,2.89345z"/><path d="M-2,381v-33.17442h140c0,10.05814 0,20.11628 0,30.17442c0,0.4714 0,1.94281 0,3z"/><path d="M264.67933,371.75627v-23.9082h23.60934v23.9082z" data-paper-data="{&quot;origPos&quot;:null}"/><path d="M137.14754,374.51656v-26.73137h35.51396v26.73137z" data-paper-data="{&quot;origPos&quot;:null}"/><path d="M170.42185,373.94036v-26.16342h33.53767v26.16342z" data-paper-data="{&quot;origPos&quot;:null}"/><path d="M177,381v-30.5h23v30.5z" data-paper-data="{&quot;origPos&quot;:null}"/><path d="M142,371v-21h35v21z" data-paper-data="{&quot;origPos&quot;:null}"/><path d="M121,376v-26h37v26z"/><path d="M269,371v-18h209v18z"/><path d="M264,376v-27h19v27z"/><path d="M265,381v-29h29v29z"/><path d="M7,382v-32h198v32z"/><path d="M264,382v-29h283.87097v29z"/></g></g></svg>